<svg xmlns="http://www.w3.org/2000/svg" viewBox="0 0 39.33 13.81"><defs><style>.cls-1{fill:#fff;}</style></defs><title>create</title><g id="Camada_2" data-name="Camada 2"><g id="Layer_1" data-name="Layer 1"><path class="cls-1" d="M10.26,8.78H9.59a3.47,3.47,0,0,1-.06.64,3.11,3.11,0,0,1-.21.63l.79.36-.24.49-.78-.36a3.87,3.87,0,0,1-.49.64,3.31,3.31,0,0,1-.62.5l.38.9-.59.34L7.36,12a3.75,3.75,0,0,1-.94.25,3,3,0,0,1-.89,0l-.21,1-.65-.17.27-.95A5.61,5.61,0,0,1,4.32,12c-.2-.06-.39-.14-.56-.21l-.51.83-.53-.41.45-.76a4.3,4.3,0,0,1-.61-.52A6,6,0,0,1,2,10.26l-.88.46-.3-.5.88-.5a5.37,5.37,0,0,1-.43-1.18,6.1,6.1,0,0,1-.16-1.31l-.95.15L0,6.73l1.13-.15a9.38,9.38,0,0,1,.19-1.2,7.8,7.8,0,0,1,.36-1.13l-.9-.61.41-.57L2,3.62c.14-.24.29-.46.44-.67a6.41,6.41,0,0,1,.44-.56L2.2,1.5l.49-.37.63.79a7.22,7.22,0,0,1,.73-.54A5.1,5.1,0,0,1,4.78,1L4.58.13,5.27,0l.11.82L5.86.74a4,4,0,0,1,.49,0,2.85,2.85,0,0,1,.51,0,2.77,2.77,0,0,1,.48.11L7.55,0l.58.15-.29,1a2.53,2.53,0,0,1,.55.44,3.48,3.48,0,0,1,.47.59l.65-.44.37.58-.72.43c.07.17.14.32.19.46s.09.27.12.38l-.68.28A3.73,3.73,0,0,0,7.61,2.56a2.66,2.66,0,0,0-1.5-.43,3,3,0,0,0-1.33.3,3.35,3.35,0,0,0-1.09.92A3.9,3.9,0,0,0,3,4.58,4.26,4.26,0,0,0,2.8,6,5.37,5.37,0,0,0,3,7.46a3.62,3.62,0,0,0,.63,1.2,2.94,2.94,0,0,0,1.08.88,3.27,3.27,0,0,0,1.4.29A2.48,2.48,0,0,0,7.85,9.2a2.16,2.16,0,0,0,.69-1.67l.66-.27a2.67,2.67,0,0,1,.2.46,4,4,0,0,1,.14.52h.72Z"/><path class="cls-1" d="M18.53,7.3l-.71.26v.18a1.64,1.64,0,0,1,0,.54,1.34,1.34,0,0,1-.12.3L18.3,9l-.4.39L17.35,9a1.89,1.89,0,0,1-.27.2,3.4,3.4,0,0,1-.34.2l-.37-.52a1.1,1.1,0,0,0,.17-.29.79.79,0,0,0,.06-.29.55.55,0,0,0-.21-.46,1,1,0,0,0-.61-.15,1.43,1.43,0,0,0-1,.49A6.79,6.79,0,0,0,13.73,9.6l.1,4-2.51-.38,1.14-6.89,1.16-.24.06,2.16c.16-.22.31-.41.46-.58a4.63,4.63,0,0,1,.42-.45l-.31-.71.49-.26.27.61a3.6,3.6,0,0,1,.52-.26,2.64,2.64,0,0,1,.55-.15l0-.73.53,0-.11.67a1.48,1.48,0,0,1,.7.18,1.07,1.07,0,0,1,.45.47l.67-.35Zm-5.3,4.79a.64.64,0,0,0-.17-.44.58.58,0,0,0-.84,0,.6.6,0,0,0-.18.44.61.61,0,0,0,.15.45.59.59,0,0,0,1-.45Zm0-1.8a.45.45,0,0,0-.12-.34.5.5,0,0,0-.37-.12.42.42,0,0,0-.46.46.41.41,0,0,0,.46.46.5.5,0,0,0,.37-.11A.45.45,0,0,0,13.27,10.29Z"/><path class="cls-1" d="M22.16,13.81l-3.08-.4,1.14-7.13H21.6Zm.25-9.29L22.23,5l-.64-.32a1.15,1.15,0,0,1-.23.21.81.81,0,0,1-.27.11l.14.61-.5.07L20.61,5a.73.73,0,0,1-.23-.09,1,1,0,0,1-.22-.14l-.48.45-.34-.39.57-.41a.75.75,0,0,1-.09-.29,1.31,1.31,0,0,1,0-.33L19.2,3.4l.24-.4.6.41a.86.86,0,0,1,.2-.18.62.62,0,0,1,.26-.12l-.12-.87h.46l0,.81a1.32,1.32,0,0,1,.3.07,1.49,1.49,0,0,1,.25.13l.51-.41.33.34-.58.39a.53.53,0,0,1,.08.25,2.9,2.9,0,0,1,0,.43ZM21.29,12a.64.64,0,0,0-.19-.47.7.7,0,0,0-.49-.2.67.67,0,0,0-.47.2A.64.64,0,0,0,20,12a.65.65,0,0,0,.19.48.66.66,0,0,0,.47.19.69.69,0,0,0,.49-.19A.65.65,0,0,0,21.29,12Zm0-2a.57.57,0,0,0-.12-.39.68.68,0,0,0-.8,0,.53.53,0,0,0-.13.39.54.54,0,0,0,.13.4.52.52,0,0,0,.92-.4Z"/><path class="cls-1" d="M31,12.21v.4a12.15,12.15,0,0,1-2.24.77,10.46,10.46,0,0,1-2.2.25,4.75,4.75,0,0,1-1.1-.12,3.36,3.36,0,0,1-.89-.34,1.84,1.84,0,0,1-.71-.7,2,2,0,0,1-.23-1,2.25,2.25,0,0,1,1-1.78,8.86,8.86,0,0,1,3-1.35,1.3,1.3,0,0,0-.54-.71,1.82,1.82,0,0,0-1-.24,2.47,2.47,0,0,0-1.16.26,2.86,2.86,0,0,0-.92.76L23.63,8a4.2,4.2,0,0,1,1.52-1.42,4.48,4.48,0,0,1,2.12-.48A2.85,2.85,0,0,1,29,6.69a4.09,4.09,0,0,1,1.26,1.64,7.93,7.93,0,0,1,.6,1.82A9.83,9.83,0,0,1,31,12.21Zm-2.88-.54c0-.44,0-.88-.06-1.31s-.11-.87-.19-1.29a12.16,12.16,0,0,0-1.25.42,6.14,6.14,0,0,0-1,.47l.75,3a7.16,7.16,0,0,0,1-.07,2.1,2.1,0,0,0,.68-.21c0-.18,0-.35,0-.52Zm1.74-2a.53.53,0,0,0-.13-.39.5.5,0,0,0-.39-.13.54.54,0,0,0-.4.13.53.53,0,0,0-.14.39.54.54,0,0,0,.14.4.58.58,0,0,0,.4.12.45.45,0,0,0,.52-.52Zm.3,2a.68.68,0,0,0-.19-.47.62.62,0,0,0-.48-.2.65.65,0,0,0-.48.19.65.65,0,0,0,0,1,.69.69,0,0,0,.48.19.66.66,0,0,0,.48-.2A.67.67,0,0,0,30.18,11.64Z"/><path class="cls-1" d="M39.33,7.3l-.7.26v.18a1.64,1.64,0,0,1,0,.54,1.34,1.34,0,0,1-.12.3l.63.45-.4.39L38.15,9a1.37,1.37,0,0,1-.26.2c-.1.07-.22.13-.34.2l-.37-.52a1.1,1.1,0,0,0,.17-.29.79.79,0,0,0,.06-.29.55.55,0,0,0-.21-.46,1,1,0,0,0-.62-.15,1.43,1.43,0,0,0-1,.49A7.13,7.13,0,0,0,34.53,9.6l.11,4-2.51-.38,1.14-6.89,1.16-.24.06,2.16c.16-.22.31-.41.45-.58s.29-.32.43-.45l-.32-.71.5-.26.27.61a3.6,3.6,0,0,1,.52-.26,2.64,2.64,0,0,1,.55-.15l0-.73.53,0-.11.67a1.48,1.48,0,0,1,.7.18,1.13,1.13,0,0,1,.45.47l.66-.35ZM34,12.09a.64.64,0,0,0-.17-.44.58.58,0,0,0-.42-.18.56.56,0,0,0-.42.18.6.6,0,0,0-.18.44.61.61,0,0,0,.15.45.59.59,0,0,0,1-.45Zm0-1.8A.45.45,0,0,0,34,10a.5.5,0,0,0-.37-.12.42.42,0,0,0-.46.46.41.41,0,0,0,.46.46.5.5,0,0,0,.37-.11A.45.45,0,0,0,34.08,10.29Z"/></g></g></svg>