<svg xmlns="http://www.w3.org/2000/svg" xmlns:xlink="http://www.w3.org/1999/xlink" viewBox="0 0 460 342"><defs><style>.cls-1{fill:none;}.cls-2{isolation:isolate;}.cls-3{clip-path:url(#clip-path);}.cls-4{fill:url(#linear-gradient);}.cls-5,.cls-6{fill:#af7600;}.cls-19,.cls-24,.cls-6{opacity:0.5;}.cls-15,.cls-16,.cls-17,.cls-19,.cls-21,.cls-22,.cls-24,.cls-6{mix-blend-mode:multiply;}.cls-7{opacity:0.8;}.cls-8{fill:url(#linear-gradient-2);}.cls-9{fill:url(#linear-gradient-3);}.cls-10{fill:url(#linear-gradient-4);}.cls-11{fill:#237612;}.cls-12,.cls-13{fill:#65b006;}.cls-13{opacity:0.7;mix-blend-mode:screen;}.cls-14{fill:#89610d;}.cls-15,.cls-16,.cls-17{fill:#71530d;}.cls-15{opacity:0.2;}.cls-16{opacity:0.4;}.cls-17,.cls-21,.cls-22{opacity:0.3;}.cls-18,.cls-19{fill:#6ebd24;}.cls-20,.cls-22{fill:#318a0a;}.cls-23{fill:#b47c56;}.cls-25{fill:#11481b;}</style><clipPath id="clip-path"><rect class="cls-1" width="460" height="342"/></clipPath><linearGradient id="linear-gradient" x1="242.44" y1="306.09" x2="242.44" y2="-8.14" gradientUnits="userSpaceOnUse"><stop offset="0" stop-color="#f2fff8"/><stop offset="0.83" stop-color="#2cd0fd"/></linearGradient><linearGradient id="linear-gradient-2" x1="87.31" y1="-57.7" x2="87.31" y2="82.86" gradientUnits="userSpaceOnUse"><stop offset="0" stop-color="#f2f8ff"/><stop offset="0.36" stop-color="#fff"/><stop offset="1" stop-color="#94e5fc"/></linearGradient><linearGradient id="linear-gradient-3" x1="13.49" y1="105.63" x2="13.49" y2="246.19" xlink:href="#linear-gradient-2"/><linearGradient id="linear-gradient-4" x1="397.33" y1="16.97" x2="397.33" y2="157.53" xlink:href="#linear-gradient-2"/></defs><title>Prancheta 2</title><g class="cls-2"><g id="Layer_1" data-name="Layer 1"><g class="cls-3"><rect class="cls-4" x="-14.93" y="-14.31" width="514.75" height="326"/><path class="cls-5" d="M479.55,270.38c-26.1-14.3-58.83-19.87-89.56-25.87-10.16-2-20.28-4.1-30.24-6.67a307.25,307.25,0,0,1-31.13-10.26c-12.69-4.74-25.39-9.45-38.5-13.37-11.39-3.4-24.81-7.55-37.08-6.81-8.62.51-15.15,5-21.3,9.38-7.08,5-20,22-29,24.6-22.77,6.52-39.88-16.93-61.32-22.3-7.68-1.93-15.39-2.94-23.06-.69-9.53,2.79-16.7,9.25-24.35,14.28-14.48,9.53-30.83,16.79-50.2,13.16-15-2.83-28.64-10.89-41.42-17.5C-4.87,224.59-12,220.74-19.2,217v110.3H479.55Z"/><path class="cls-6" d="M479.55,270.38c-26.1-14.3-58.83-19.87-89.56-25.87-10.16-2-20.28-4.1-30.24-6.67a307.25,307.25,0,0,1-31.13-10.26c-8.76-3.27-17.54-6.51-26.45-9.51h0c3.18,5.4,7,10.35,8.41,16.31,0,.19,0,.51-.34.51-11.54-.07-20.78-6.85-32.23-7.34-9.19-.4-14.65,4.13-21.17,8.38a23.09,23.09,0,0,1-8.31,3.67c-3.3.62-4.9,0-7.36-1.78-3.53-2.63-6.52-5.36-11.72-5.31-5.51,0-9.51,3.58-12.92,6.58-2.63,2.32-5.06,4.83-8.23,6.7-4.9,2.91-11,4.65-17,5.58-11.32,1.76-22.93-1.13-33.25-4.86-9.43-3.4-17.91-8.57-27.86-11-8.2-2-15.33.2-21.57,4.45a59.24,59.24,0,0,0-10.08,8.74c-2.62,2.85-4.4,6.14-7.07,9-4.29,4.57-11.78,6.51-17.34,2.08-2.77-2.21-4.24-5.34-8.61-5.7-4.81-.4-8,3.5-10.21,6.25s-4.2,5.56-7.1,7.86c-3.24,2.58-8.32,3.12-12.7,3-10-.33-20.38-6.88-27.22-12.3-7.45-5.91-14.25-14.14-25-16.14a11.32,11.32,0,0,0-2.48-.19v84.74H479.55Z"/><g class="cls-7"><path class="cls-8" d="M-28.39,11.09C-32.64-.34,8.46-3.23,22.48,3.57c0,0,7.21-15.84,37-7.28,0,0,.9-14.38,27.33-16.75s33.95,10.2,33.95,10.2,13.32-4,25.53,0,10.42,15,10.42,15,7.21-2.67,21-2.55S203.31,6,203.32,11.82c0,9.58-28.44,8.25-28.44,8.25S171.63,25,161,26.5A34.71,34.71,0,0,1,142,23.68s-3.63,8.93-22.08,9.73c-23,1-31.69-10.73-31.69-10.73s-18.93,10.83-45.37,7S15,15.58,15,15.58-24.16,22.46-28.39,11.09Z"/></g><g class="cls-7"><path class="cls-9" d="M-71.48,174.42C-74.6,163-44.42,160.11-34.12,166.9c0,0,5.29-15.83,27.13-7.28,0,0,.66-14.38,20.07-16.74S38,153.07,38,153.07s9.78-4,18.75,0,7.65,15,7.65,15,5.29-2.67,15.44-2.54,18.82,3.75,18.82,9.58c0,9.58-20.88,8.25-20.88,8.25s-2.39,5-10.22,6.43A19.78,19.78,0,0,1,53.67,187s-2.66,8.93-16.21,9.74C20.58,197.75,14.19,186,14.19,186a43.88,43.88,0,0,1-33.31,7c-19.41-3.83-20.52-14.11-20.52-14.11S-68.37,185.79-71.48,174.42Z"/></g><g class="cls-7"><path class="cls-10" d="M281.64,85.76c-4.26-11.44,36.84-14.32,50.86-7.53,0,0,7.21-15.83,36.95-7.28,0,0,.9-14.37,27.34-16.74S430.73,64.4,430.73,64.4s13.32-4,25.54,0,10.41,15,10.41,15,7.21-2.67,21-2.55,25.63,3.75,25.63,9.58c0,9.59-28.44,8.26-28.44,8.26s-3.25,5-13.91,6.42a34.62,34.62,0,0,1-18.93-2.82s-3.62,8.93-22.08,9.74c-23,1-31.69-10.74-31.69-10.74s-18.92,10.83-45.36,7S325,90.25,325,90.25,285.87,97.12,281.64,85.76Z"/></g><path class="cls-11" d="M79.41,264.89s1-2.29.49-2.59-1.13,1.32-1.13,1.32-.06-1.56-.73-1.62-.38,1.21-.38,1.21-.4-1.77-1.24-1.61.11,1.64.11,1.64-1.13-.56-1.51-.19.68,1.24.68,1.24-1.65-.45-2.13-.05.91.78.91.78Z"/><path class="cls-12" d="M-116.08,293.9c1.47-4.42,6.18-9.12,6.18-9.12s-5.6,0-15.31,6.17C-116.67,280.07-99.07,270.48-78,270c44.38-.88,199-8.35,257-7s231.1-.88,275.47,1.76,59,19.68,59,19.68L502,281.87a50.17,50.17,0,0,1,8.83,12.72s-35.6,63.78-66,62.74c5.19,4.41,5.71,7.52,5.71,7.52s-11.94-5.18-19.72-5.44c5.19,3.63,4.41,7.26,4.41,7.26s-54.2-22.31-52.58-19.72l-.33.07-8.67-1.41s-7.16-.41-12.1.88l3.64,3.12S348.87,361,302.93,367.26c-42,6.49-49.82,4.93-54.5,2.6a91.65,91.65,0,0,1-10.12-6.24l1.56,8.83-5.71-7,1,7.53S137.1,385.69,100,378.41l-.78-8-9.09,9.09s3.37-10.91,2.6-10.38-8.56,8.82-8.56,8.82-47,2.86-78.64-8.82l3.63-5.45-11.06,3-6.47,3.23s1.76-5.89,16.18-16.19a110.17,110.17,0,0,0-24.71,7.95l4.7-7.06s-8.53-.29-15.59,4.41C-25.74,352.16-11,345.39-11,345.39L-30.61,378s-9.23-5.53-17.54-2.95a77.79,77.79,0,0,1,7-5s-20.12-.18-26.4,4.62c3.5-6.64,4.06-7.75,4.06-7.75s-1.83,2.47-24.9-5.28-27.86-9.73-27.86-9.73c.88-4.71,11.92-63.63,11.92-63.63S-107.84,287.72-116.08,293.9Z"/><path class="cls-13" d="M438,273.12s-97.25-2.34-235.5-1.17S23.22,269.6-47.08,273.12s118.33,14.05,182.77,15.23,25.64,9.46-52.2,28.75-29.81,34.51,80.32,21.63c111.3-17.58,137.08-12.89,76.15,2.34s7,22.26,68,9.37,59.75-14.06,38.66-35.15-3.51-10.54,57.41-18.74S489.52,275.46,438,273.12Z"/><path class="cls-12" d="M232.38,293.87s-12.14,4-19.61,4-31.44-4.35-31.44-4.35S218.07,288,232.38,293.87Z"/><path class="cls-12" d="M308.89,334.7a13.79,13.79,0,0,1-10.28,4.36c-6.22-.31-31.44-3.11-31.44-3.11S298.3,332.83,308.89,334.7Z"/><path class="cls-12" d="M435.36,279.55s-17.75,2.18-21.48,1.87,2.18-2.8,4.05-3.43S435.36,279.55,435.36,279.55Z"/><path class="cls-12" d="M281.57,272.07s-14.63.31-17.12,0,2.18-2.49,6.53-1.86S281.57,272.07,281.57,272.07Z"/><path class="cls-12" d="M64.9,278.92a163.14,163.14,0,0,1-23.67,2.8c-11.2.32-13.38-2.8-10.58-4.35S53.38,276.43,64.9,278.92Z"/><path class="cls-14" d="M453.78,194.78s-17.09,15.62-17.09,24.82,1.15,49.64,1.15,49.64l-16.28.83s-.49-44.55-1.8-51.78S416.31,208.1,402.17,201l.49-3s5.59.33,17.59,10c0,0,1.81-8.06-13.48-24.17l-3.95-4.11,4.61-2.63s5.09,8.55,9,13.65,6.57,8.71,5.75-2.63a127.61,127.61,0,0,1-.33-17.43l3.29.82s.17,11.51,1,17.1,2.46,14,5.59,2.63A129.6,129.6,0,0,1,439.32,171l2.3,3.78s-3.29,8.54-5.26,13.48S435.21,202,436,210.4c0,0,14-16.77,17.59-19.73Z"/><path class="cls-15" d="M453.78,194.78l-.16-4.11C450,193.63,436,210.4,436,210.4c-.82-8.39-1.64-17.26.33-22.19s5.26-13.48,5.26-13.48l-2.3-3.78a129.6,129.6,0,0,0-7.56,20.38c-3.13,11.34-4.77,3-5.59-2.63s-1-17.1-1-17.1l-1-.26c0,.26.07.53.09.8.46,4,.21,8,.28,12,.11,6.54.92,13.11,1.21,19.66.66,14.62.83,29.25,1.46,43.87.31,7.37.44,14.72.54,22.08l10.12-.52s-1.15-40.44-1.15-49.64S453.78,194.78,453.78,194.78Z"/><path class="cls-16" d="M453.78,194.78l-.16-4.11C450,193.63,436,210.4,436,210.4c-.82-8.39-1.64-17.26.33-22.19s5.26-13.48,5.26-13.48l-2.3-3.78a128.8,128.8,0,0,0-6.56,16.93c-.23,2.24-.48,4.44-.59,6.54-.79,14.19-.3,28.44.14,42.64.33,10.8.74,21.61,1.07,32.41l4.46-.23s-1.15-40.44-1.15-49.64S453.78,194.78,453.78,194.78Z"/><path class="cls-17" d="M411.48,201.85c-6-3.61-8.82-3.78-8.82-3.78l-.49,3c3.35,1.67,6,3.11,8.17,4.44A8.54,8.54,0,0,0,411.48,201.85Z"/><path class="cls-17" d="M412.44,185.13c-2.71-4.08-5-7.94-5-7.94l-4.61,2.63,3.95,4.11c1,1.07,2,2.11,2.83,3.11A4.86,4.86,0,0,0,412.44,185.13Z"/><path class="cls-17" d="M438.57,182.59c1.57-4,3.05-7.86,3.05-7.86l-2.3-3.78s-1.55,3.16-3.47,8.09A4.45,4.45,0,0,0,438.57,182.59Z"/><path class="cls-17" d="M453.62,190.67a93.77,93.77,0,0,0-7.48,7.92,4.55,4.55,0,0,0,.6,1.13,5,5,0,0,0,1.1,1.06c3.25-3.54,5.94-6,5.94-6Z"/><path class="cls-17" d="M425.46,180.13c-.22-4.46-.28-8.53-.28-8.53l-3.29-.82a101.54,101.54,0,0,0,0,10.52A6.7,6.7,0,0,0,425.46,180.13Z"/><path class="cls-18" d="M479.67,149.8s9.05-13.15-2.82-15.7a3.59,3.59,0,0,0,1.61-3.49,3.5,3.5,0,0,0-3.66-2.31l-.13,0a2.09,2.09,0,0,0-.9-2.42,3.39,3.39,0,0,0-3.85.33,4,4,0,0,0-.31.27c.68-2.45,1.91-11.55-13.2-20.9-16.35-10.11-31.29-3.76-35.19,1a3.28,3.28,0,0,0-3.33-2.45c-2.22.27-3.26,2.14-3.28,4.12a3.28,3.28,0,0,0-2.71-.63c-1.18.32-1.59,1.74-1.55,2.8a1.54,1.54,0,0,0,0,.31,19.57,19.57,0,0,0-21.8,1.66c-6.81,5.06-9.2,11.22-9.78,16.42-.87-1.72-2.62-3.26-4.59-2.48-2.23.88-1.94,4.65-1.74,6.54.07.59.15,1.17.25,1.74-1.4-1.42-3.54-2.19-4.8-.74s-.71,3.4.21,4.81a4.42,4.42,0,0,0-3.95,1.47c-1.6,1.72-1.51,4.57-.36,6.69-5.68,3.87-10.88,9.62-11.72,17.9-1.4,13.66,7.16,17.13,12.34,18a4.35,4.35,0,0,0-.7.72,2.38,2.38,0,0,0-.16,2.94,2.82,2.82,0,0,0,1.73.9c-2.15,1.63-3.62,4.56-1.62,6.77a3.08,3.08,0,0,0,2.59,1c-3.2,3.2-8.31,10.62-.21,20.3,10,11.92,30.94,3.19,35.3-6.1a3.14,3.14,0,0,0,.32.31c1.3,1.15,2.89.26,3.51-1.07a5.09,5.09,0,0,0,.34-3.15c2,.17,2.79-1,2.82-2.88,0-2.31-1.63-5.09-3-6.84a6,6,0,0,0-1-1,5.27,5.27,0,0,0,3.69-3.33c.85-2.13-.46-4.83-2.39-6.57a5.4,5.4,0,0,0,3-2.34,3.82,3.82,0,0,0,.26-3.46,7.74,7.74,0,0,0,.55.73c1.53,1.75,3.65,2.15,5.21.23a4.59,4.59,0,0,0,.82-1.56c.42,1.61,1.55,2.67,3.69,1.95,1.88-.62,2.43-2.36,2.46-4.14a3.22,3.22,0,0,0,3.78.32,4.11,4.11,0,0,0,1-1.18,4.56,4.56,0,0,0,3.86,2.92,7.64,7.64,0,0,0,6.81-3.29,2.75,2.75,0,0,0,3.1,2,3.21,3.21,0,0,0-.19,2.92,2.82,2.82,0,0,0,3.49.85c-.11.26-.21.53-.3.79a6.81,6.81,0,0,0,1,6.3,4.17,4.17,0,0,0,4.33,1.06,10.29,10.29,0,0,0-.88,1.57c-.84,1.81-1.05,4.52.46,6a2.25,2.25,0,0,0,1.13.61,3.16,3.16,0,0,0,.86,2.86,2.29,2.29,0,0,0,2,.79c-1.25,3.19,2.26,13.52,20.86,10.27,19-3.32,24.41-19.44,15.09-24.23a2.26,2.26,0,0,0,1.62-1.59,2.64,2.64,0,0,0-1-2.55c3,.14,9.67-.65,13.29-9.72C506.79,160.92,491.82,148.26,479.67,149.8Z"/><path class="cls-19" d="M491.67,152.31a15.13,15.13,0,0,1,4.07,8.12c.74,5.2-3,10.2-7.51,12.42a11,11,0,0,1-9,.44,19.31,19.31,0,0,1-2,6.51,9.28,9.28,0,0,1-11.12,4.89c-6.14-1.89-8.58-8.92-8.27-15.22a13.88,13.88,0,0,1-11.69-2.65A10,10,0,0,1,443,162.1c-2.53,1.35-5.78,2.49-8.62,1.6s-3.94-3.87-3.74-6.75a12.08,12.08,0,0,1-2,2.59c-1.17,1.16-3.24,2.81-5,2a4,4,0,0,1-2-3.7,5,5,0,0,1-3.49,2.46,3.18,3.18,0,0,1-1.6-.16,7.83,7.83,0,0,1-.34,1.43c-.67,2-2.77,4.52-5.18,3.66a6.71,6.71,0,0,1-3.61-4c-1.3,1.93-3.84,2.78-5.65,1.42a13.81,13.81,0,0,1-6,7.24c-4,2.16-10.24,2.38-14.14-.14a24.57,24.57,0,0,1-4.13,2c-4.54,1.65-9.68,2.48-14.44,1.32a15.33,15.33,0,0,1-10.62-8.81c-.08-.18-.14-.35-.21-.52-.06.37-.12.75-.15,1.13-1.4,13.66,7.16,17.13,12.34,18a4.35,4.35,0,0,0-.7.72,2.38,2.38,0,0,0-.16,2.94,2.82,2.82,0,0,0,1.73.9c-2.15,1.63-3.62,4.56-1.62,6.77a3.08,3.08,0,0,0,2.59,1c-3.2,3.2-8.31,10.62-.21,20.3,10,11.92,30.94,3.19,35.3-6.1a3.14,3.14,0,0,0,.32.31c1.3,1.15,2.89.26,3.51-1.07a5.09,5.09,0,0,0,.34-3.15c2,.17,2.79-1,2.82-2.88,0-2.31-1.63-5.09-3-6.84a6,6,0,0,0-1-1,5.27,5.27,0,0,0,3.69-3.33c.85-2.13-.46-4.83-2.39-6.57a5.4,5.4,0,0,0,3-2.34,3.82,3.82,0,0,0,.26-3.46,7.74,7.74,0,0,0,.55.73c1.53,1.75,3.65,2.15,5.21.23a4.59,4.59,0,0,0,.82-1.56c.42,1.61,1.55,2.67,3.69,1.95,1.88-.62,2.43-2.36,2.46-4.14a3.22,3.22,0,0,0,3.78.32,4.11,4.11,0,0,0,1-1.18,4.56,4.56,0,0,0,3.86,2.92,7.64,7.64,0,0,0,6.81-3.29,2.75,2.75,0,0,0,3.1,2,3.21,3.21,0,0,0-.19,2.92,2.82,2.82,0,0,0,3.49.85c-.11.26-.21.53-.3.79a6.81,6.81,0,0,0,1,6.3,4.17,4.17,0,0,0,4.33,1.06,10.29,10.29,0,0,0-.88,1.57c-.84,1.81-1.05,4.52.46,6a2.25,2.25,0,0,0,1.13.61,3.16,3.16,0,0,0,.86,2.86,2.29,2.29,0,0,0,2,.79c-1.25,3.19,2.26,13.52,20.86,10.27,19-3.32,24.41-19.44,15.09-24.23a2.26,2.26,0,0,0,1.62-1.59,2.64,2.64,0,0,0-1-2.55c3,.14,9.67-.65,13.29-9.72C505.24,164.82,499.49,156.44,491.67,152.31Z"/><path class="cls-19" d="M453.91,205.44a8.72,8.72,0,0,1,.33-7.09c.11-.21.22-.42.34-.63a11,11,0,0,1-1.83-1.74,6.36,6.36,0,0,1-.76-7.72,5.77,5.77,0,0,1-1.27-.5,8.22,8.22,0,0,1-4.21-8.16,13.8,13.8,0,0,1,.94-4.41,6.79,6.79,0,0,1-3.85-1.46A9.36,9.36,0,0,1,440,168a9.17,9.17,0,0,1-5.39,2.87,10.08,10.08,0,0,1-7.85-2,4.5,4.5,0,0,1-1.28,2.35c-1.46,1.44-3.87,2.1-5.59.68a5.68,5.68,0,0,1-1.58-2.09,8,8,0,0,1-7.36,4.18,8.15,8.15,0,0,1-1.82-.26,4.25,4.25,0,0,1-.69,2c-.81,1.25-2.44,2.37-4,1.92a6.29,6.29,0,0,1-.07,3.65,3.94,3.94,0,0,1-1.49,1.75,8.3,8.3,0,0,1,2,3,5.78,5.78,0,0,1-2.11,6.92,9.84,9.84,0,0,1-2.76,1.33c3.33.2,6.12,3.36,7.12,6,1.42,3.73-1.5,5-1.58,5.08,2,.16,2.78-1,2.81-2.88,0-2.31-1.63-5.09-3-6.84a6,6,0,0,0-1-1,5.27,5.27,0,0,0,3.69-3.33c.85-2.13-.46-4.83-2.39-6.57a5.4,5.4,0,0,0,3-2.34,3.82,3.82,0,0,0,.26-3.46,7.74,7.74,0,0,0,.55.73c1.53,1.75,3.65,2.15,5.21.23a4.59,4.59,0,0,0,.82-1.56c.42,1.61,1.55,2.67,3.69,1.95,1.88-.62,2.43-2.36,2.46-4.14a3.22,3.22,0,0,0,3.78.32,4.11,4.11,0,0,0,1-1.18,4.56,4.56,0,0,0,3.86,2.92,7.64,7.64,0,0,0,6.81-3.29,2.75,2.75,0,0,0,3.1,2,3.21,3.21,0,0,0-.19,2.92,2.82,2.82,0,0,0,3.49.85c-.11.26-.21.53-.3.79a6.81,6.81,0,0,0,1,6.3,4.17,4.17,0,0,0,4.33,1.06,10.29,10.29,0,0,0-.88,1.57c-.84,1.81-1.05,4.52.46,6a2.25,2.25,0,0,0,1.13.61,3.16,3.16,0,0,0,.86,2.86,2.29,2.29,0,0,0,2,.79c-.64,1.64,0,5.15,3.25,7.75A13.77,13.77,0,0,1,453.91,205.44Z"/><path class="cls-20" d="M392.36,180.71a14.45,14.45,0,0,0-3.54.11c-1.9.46-3.19,2.22-4.13,3.88l-.25.3a.34.34,0,0,0,.33.53c1.9-.48,3.78.2,5.69-.22s3.1-2.77,4-4.2a.33.33,0,0,0-.08-.34C394,180.38,392.84,180.7,392.36,180.71Z"/><path class="cls-20" d="M384.92,187.16a.36.36,0,0,0-.39-.18c-.28.08-.42.39-.5.68-1.22,1.85-1.09,4.94-.43,6.85a6.15,6.15,0,0,0,4.84,3.79.28.28,0,0,0,.27-.17,6.72,6.72,0,0,0-.1-5.84C387.78,190.21,386.08,189,384.92,187.16Z"/><path class="cls-20" d="M383.69,159.67a.37.37,0,0,0-.39-.24c-3.46.41-8.55,3.37-9.13,7.22a2.86,2.86,0,0,0-.07.28c-.1.59-.53,2.2-.19,2.73s1.73.17,2.32.06a9.81,9.81,0,0,0,6.57-3.89,6.64,6.64,0,0,0,1-3.24A7.34,7.34,0,0,0,383.69,159.67Z"/><path class="cls-20" d="M377.08,149.87a8.11,8.11,0,0,0,5.16,3.72c.52,0,3.42.2,3.55-.58.07-.47-.46-1.34-.66-1.79a6.9,6.9,0,0,0-1.39-1.88,8.31,8.31,0,0,0-3.51-2.23,10.64,10.64,0,0,0-2.17-.33c-.47-.05-1.56-.19-1.95.1-.68.51.66,2.56,1,3Z"/><path class="cls-20" d="M407.64,137.43l-.13,0a.25.25,0,0,0-.26,0l-.06,0c-2.7.43-5,1-7.06,3a10,10,0,0,0-2.43,6.79.38.38,0,0,0,.19.3c.86.39,2.53,0,3.47-.18a6.46,6.46,0,0,0,3.58-2c2.08-2.16,2.35-4.79,2.78-7.6a.37.37,0,0,0,0-.18l0,0C407.84,137.58,407.74,137.42,407.64,137.43Z"/><path class="cls-20" d="M416.77,124.83c-.28-.85-2.59.43-3,.59a12.58,12.58,0,0,0-4.42,2.53c-1.63,1.48-3.31,5-2.43,7.42,0,.28.06.57.09.84a.4.4,0,0,0,.37.37,6.51,6.51,0,0,0,3.12-1,19,19,0,0,0,4.2-2.74,7.65,7.65,0,0,0,2-3.68,8.25,8.25,0,0,0,.22-2.43A7.2,7.2,0,0,0,416.77,124.83Z"/><path class="cls-20" d="M393.38,121.38a5.36,5.36,0,0,0-1.18-.27,4.61,4.61,0,0,0-2.6.29c-1.24.49-.73,1.26-.26,2.29a5.85,5.85,0,0,0,2.87,2.81,4.85,4.85,0,0,0,3.94-.3c1.14-.57,1.12-1,.52-2A6.65,6.65,0,0,0,393.38,121.38Z"/><path class="cls-20" d="M431.43,114.78a.26.26,0,0,0-.34.22c-.29,2.3-.67,4.87,1,6.73a3.88,3.88,0,0,0,2.63,1.15l.27.05a4.3,4.3,0,0,0,1.6-.16l.35,0a.23.23,0,0,0,.17-.15c.46-1.38-.26-3.24-1.06-4.34A11.49,11.49,0,0,0,431.43,114.78Z"/><path class="cls-20" d="M445.46,116.09c-2.92.73-7.74,3.16-7.19,6.68a3.35,3.35,0,0,0,.14,1.76c.33.54,1.23.42,1.74.41a6,6,0,0,0,4.79-2.78c1.05-1.65.93-3.87.93-5.74A.36.36,0,0,0,445.46,116.09Z"/><path class="cls-20" d="M458.8,138.25c1.07-2,1.1-4.84.79-7a.34.34,0,0,0-.48-.29,15,15,0,0,0-6.09,4.55,5.53,5.53,0,0,0-1.53,3.66,7.54,7.54,0,0,0,.56,2.55c.19.58,1,.27,1.35.15C455.64,141.21,457.63,140.41,458.8,138.25Z"/><path class="cls-20" d="M460.47,145.54a5.63,5.63,0,0,0-5.27-2.22,3.78,3.78,0,0,0-2,.85c-.4.47.37,1.7.61,2.17a4.7,4.7,0,0,0,1.8,2.38,7.37,7.37,0,0,0,2.69.77,13.16,13.16,0,0,1,3.63,1.27.28.28,0,0,0,.43-.19,4.38,4.38,0,0,0-.4-2.24A9.58,9.58,0,0,0,460.47,145.54Z"/><g class="cls-21"><path class="cls-20" d="M394.37,180.77a18.25,18.25,0,0,1-3.89,2,42,42,0,0,0-4,1.69c-.66.34-1.31.67-2,1a.3.3,0,0,0,.3.11c1.9-.48,3.78.2,5.69-.22s3.1-2.77,4-4.2a.33.33,0,0,0-.08-.34Z"/><path class="cls-20" d="M386.15,194.56c-1.15-2.21-2.18-5-1.7-7.54a1,1,0,0,0-.42.64c-1.22,1.85-1.09,4.94-.43,6.85a6.15,6.15,0,0,0,4.84,3.79.27.27,0,0,0,.25-.14A17.09,17.09,0,0,1,386.15,194.56Z"/><path class="cls-20" d="M383.57,159.51A33.41,33.41,0,0,1,374.48,170a6.1,6.1,0,0,0,1.75-.25,9.81,9.81,0,0,0,6.57-3.89,6.64,6.64,0,0,0,1-3.24,7.34,7.34,0,0,0-.12-2.92A.48.48,0,0,0,383.57,159.51Z"/><path class="cls-20" d="M376,147.1c-.25.73.84,2.39,1.11,2.76h0a8.11,8.11,0,0,0,5.16,3.72c.5,0,3.18.18,3.51-.49A28.26,28.26,0,0,1,376,147.1Z"/><path class="cls-20" d="M407.64,137.43l-.13,0a.32.32,0,0,0-.14,0c-.53,1.46-1.89,2.77-2.82,4a40,40,0,0,1-2.91,3.34,17.35,17.35,0,0,1-3.44,3,10.41,10.41,0,0,0,3.16-.27,6.46,6.46,0,0,0,3.58-2c2.08-2.16,2.35-4.79,2.78-7.6a.37.37,0,0,0,0-.18l0,0C407.84,137.58,407.74,137.42,407.64,137.43Z"/><path class="cls-20" d="M416.77,124.83a.4.4,0,0,0-.18-.22,16.7,16.7,0,0,1-1.27,2.31,49.27,49.27,0,0,1-2.92,4.35,21,21,0,0,1-5.41,5,.39.39,0,0,0,.35.3,6.51,6.51,0,0,0,3.12-1,19,19,0,0,0,4.2-2.74,7.65,7.65,0,0,0,2-3.68,8.25,8.25,0,0,0,.22-2.43A7.2,7.2,0,0,0,416.77,124.83Z"/><path class="cls-20" d="M395.71,125.09a12.46,12.46,0,0,1-4.52-1.66,8.47,8.47,0,0,1-2.15-1.69c-.47.49-.07,1.14.3,2a5.85,5.85,0,0,0,2.87,2.81,4.85,4.85,0,0,0,3.94-.3c.75-.38,1-.7.9-1.17A5,5,0,0,1,395.71,125.09Z"/><path class="cls-20" d="M432.24,117.8a19.6,19.6,0,0,1-1.17-2.7c-.28,2.27-.63,4.8,1,6.63a3.88,3.88,0,0,0,2.63,1.15l.27.05a4.3,4.3,0,0,0,1.6-.16l.34,0A9.89,9.89,0,0,1,432.24,117.8Z"/><path class="cls-20" d="M445.77,116.2a25,25,0,0,1-3.23,4.85,19.9,19.9,0,0,1-4,3.64c.4.35,1.15.25,1.6.25a6,6,0,0,0,4.79-2.78c1.05-1.65.93-3.87.93-5.74A.32.32,0,0,0,445.77,116.2Z"/><path class="cls-20" d="M459.51,131.08a24.66,24.66,0,0,1-2.9,4.83c-1.47,2-2.82,4.12-4.44,6,.29.29.91,0,1.23-.05,2.24-.67,4.23-1.47,5.4-3.63,1.07-2,1.1-4.84.79-7A.37.37,0,0,0,459.51,131.08Z"/><path class="cls-20" d="M459.76,147.73c-1.86-1.83-4.16-2.67-6.5-3.58l0,0c-.4.47.37,1.7.61,2.17a4.7,4.7,0,0,0,1.8,2.38,7.37,7.37,0,0,0,2.69.77,13.16,13.16,0,0,1,3.63,1.27s.05,0,.08,0A14.26,14.26,0,0,0,459.76,147.73Z"/></g><path class="cls-20" d="M415.59,270.76s-.66-3.61-6-4.66a8.69,8.69,0,0,1,7.87,1.58s-.51-1.87-3.53-4.21a8.34,8.34,0,0,1,7.52,4.81,10.91,10.91,0,0,1,3.33-4.75,17.75,17.75,0,0,0-.43,4.69,10.37,10.37,0,0,1,5.55-5.06s-.25,3.7-.93,4.44c0,0,2.59-1.17,2.1-5.18a8,8,0,0,1,2.9,5.12s.74-3.7.3-5.3a23.1,23.1,0,0,1,3.08,5.18,8.47,8.47,0,0,1,5.74-3.89,10.23,10.23,0,0,0-2.4,4s3.51-3.39,8.13-2.28c0,0-3,2.71-3.51,5.3Z"/><path class="cls-22" d="M445.46,266.19c-2.11.5-3.59,1.8-5.4,2.9a.25.25,0,0,1-.36-.15,4.91,4.91,0,0,1,.56-3.7,7.7,7.7,0,0,0-2.68,3.66.25.25,0,0,1-.41.11,12.52,12.52,0,0,1-2.14-3.43,4.83,4.83,0,0,1-.32,1.2c-.21.53-1,2.45-1.89,1.94-.31-.18-.31-.77-.35-1.08a7.21,7.21,0,0,0-.77-2.63,5.64,5.64,0,0,1-3.58,3.53.25.25,0,0,1-.3-.31,34.07,34.07,0,0,0,.9-3.4,25.83,25.83,0,0,0-4,4,.24.24,0,0,1-.35,0,3.56,3.56,0,0,1-.76-2.3,7.23,7.23,0,0,1,0-1c-.62,1.17-.94,2.44-1.6,3.58a.24.24,0,0,1-.42,0,11.59,11.59,0,0,0-4.4-3.87,5.08,5.08,0,0,1,1.07,3.81c0,.15-.18.19-.31.18-1.19-.19-2-1.19-3-1.76a7.19,7.19,0,0,0-4.46-1.14c4.55,1.24,5.14,4.46,5.14,4.46l29.75-.2a10.71,10.71,0,0,1,2.78-4.58A7.77,7.77,0,0,0,445.46,266.19Z"/><path class="cls-14" d="M59,160s-26.12,23.86-26.12,37.92,1.76,75.84,1.76,75.84L9.74,275S9,207,7,195.93s-5.27-15.57-26.87-26.37l.75-4.52s8.54.51,26.87,15.32c0,0,2.76-12.3-20.59-36.92l-6-6.27,7-4S-4.07,146.21,2,154s10,13.31,8.78-4-.5-26.61-.5-26.61l5,1.25s.25,17.58,1.5,26.12,3.77,21.35,8.54,4a197.81,197.81,0,0,1,11.56-31.13l3.51,5.77s-5,13.06-8,20.59-1.76,21.1-.5,33.91c0,0,21.35-25.62,26.87-30.14Z"/><path class="cls-15" d="M59,160l-.25-6.28c-5.52,4.52-26.87,30.14-26.87,30.14-1.26-12.81-2.51-26.37.5-33.91s8-20.59,8-20.59l-3.51-5.77a197.81,197.81,0,0,0-11.56,31.13c-4.77,17.34-7.28,4.53-8.54-4s-1.5-26.12-1.5-26.12l-1.6-.4c.05.4.11.81.15,1.21.69,6.11.32,12.22.42,18.35.17,10,1.41,20,1.85,30,1,22.34,1.27,44.7,2.23,67,.48,11.25.68,22.48.82,33.72l15.46-.78S32.84,212,32.84,197.94,59,160,59,160Z"/><path class="cls-16" d="M59,160l-.25-6.28c-5.52,4.52-26.87,30.14-26.87,30.14-1.26-12.81-2.51-26.37.5-33.91s8-20.59,8-20.59l-3.51-5.77a197.09,197.09,0,0,0-10,25.87c-.35,3.42-.73,6.78-.91,10-1.21,21.68-.45,43.45.21,65.14.51,16.5,1.13,33,1.64,49.51l6.81-.34S32.84,212,32.84,197.94,59,160,59,160Z"/><path class="cls-17" d="M35.72,141.4c2.39-6.14,4.66-12,4.66-12l-3.51-5.77s-2.38,4.83-5.3,12.36C32.09,138.43,33.4,140.64,35.72,141.4Z"/><path class="cls-17" d="M58.71,153.74c-2.15,1.76-6.69,6.71-11.43,12.09a6.69,6.69,0,0,0,.92,1.73,7.45,7.45,0,0,0,1.69,1.63C54.85,163.77,59,160,59,160Z"/><path class="cls-17" d="M15.69,137.64c-.33-6.82-.42-13-.42-13l-5-1.25a153.42,153.42,0,0,0-.07,16.06A10.1,10.1,0,0,0,15.69,137.64Z"/><path class="cls-18" d="M98.51,91.3s13.82-20.08-4.3-24C95.86,66,97.13,64.08,96.65,62s-3.43-3.89-5.58-3.54l-.2,0a3.22,3.22,0,0,0-1.37-3.7,5.19,5.19,0,0,0-5.89.51,4.49,4.49,0,0,0-.46.41C84.17,52,86.06,38.06,63,23.78,38,8.33,15.17,18,9.21,25.34c-.74-2.15-2.61-4.05-5.08-3.74-3.39.41-5,3.27-5,6.28a5,5,0,0,0-4.14-1c-1.79.49-2.42,2.66-2.36,4.29a2.67,2.67,0,0,0,.07.47c-5.2-2.87-18.75-8.29-33.29,2.53C-51,42-54.67,51.36-55.57,59.3c-1.32-2.63-4-5-7-3.79-3.41,1.34-3,7.1-2.66,10,.1.9.22,1.78.39,2.66C-67,66-70.26,64.82-72.19,67c-1.77,2-1.07,5.21.32,7.36a6.74,6.74,0,0,0-6,2.24c-2.44,2.62-2.31,7-.54,10.22-8.69,5.91-16.63,14.7-17.92,27.35-2.12,20.87,11,26.17,18.87,27.48a6.5,6.5,0,0,0-1.07,1.09c-1,1.23-1.4,3.24-.25,4.5a4.3,4.3,0,0,0,2.64,1.38c-3.29,2.49-5.53,7-2.48,10.34a4.67,4.67,0,0,0,4,1.54c-4.88,4.89-12.69,16.23-.32,31,15.22,18.21,47.26,4.87,53.93-9.33a5.44,5.44,0,0,0,.48.48c2,1.76,4.42.39,5.37-1.64a7.77,7.77,0,0,0,.52-4.8c3.05.25,4.27-1.46,4.31-4.41.06-3.52-2.5-7.78-4.6-10.45a9.35,9.35,0,0,0-1.54-1.54,8.1,8.1,0,0,0,5.64-5.08c1.29-3.26-.7-7.39-3.66-10a8.27,8.27,0,0,0,4.6-3.58,5.81,5.81,0,0,0,.4-5.28A12.44,12.44,0,0,0-8.72,137c2.33,2.67,5.57,3.29,8,.35a7,7,0,0,0,1.25-2.39c.64,2.47,2.37,4.08,5.64,3,2.86-1,3.7-3.61,3.75-6.33a5,5,0,0,0,5.78.49,5.88,5.88,0,0,0,1.58-1.8,7,7,0,0,0,5.91,4.45,11.61,11.61,0,0,0,10.39-5,4.46,4.46,0,0,0,1.67,2.33,4.28,4.28,0,0,0,3.08.68c-.7,1.52-1,3.23-.29,4.47,1.08,1.79,3.49,2,5.33,1.29-.17.41-.33.81-.46,1.21-1,3-.61,7.2,1.57,9.63A6.38,6.38,0,0,0,51.06,151a16.25,16.25,0,0,0-1.35,2.4c-1.28,2.76-1.6,6.9.71,9.19a3.42,3.42,0,0,0,1.72.94,4.81,4.81,0,0,0,1.32,4.36,3.52,3.52,0,0,0,3.06,1.22c-1.9,4.86,3.46,20.65,31.88,15.69,29.08-5.08,37.29-29.71,23-37a3.46,3.46,0,0,0,2.48-2.42,4,4,0,0,0-1.56-3.9c4.59.22,14.77-1,20.3-14.85C140,108.29,117.06,89,98.51,91.3Z"/><path class="cls-19" d="M116.85,95.13a23.08,23.08,0,0,1,6.2,12.42c1.15,7.94-4.53,15.57-11.47,19a16.76,16.76,0,0,1-13.67.68,29.56,29.56,0,0,1-3,9.95c-3.28,6.28-10,9.61-17,7.46-9.37-2.89-13.1-13.62-12.63-23.24a21.2,21.2,0,0,1-17.86-4.06,15.21,15.21,0,0,1-4.87-7.21c-3.87,2.07-8.84,3.8-13.16,2.45-4.55-1.42-6-5.91-5.73-10.31a19.13,19.13,0,0,1-3.07,4c-1.8,1.76-4.95,4.28-7.66,3-2.09-1-2.93-3.34-3-5.65a7.7,7.7,0,0,1-5.34,3.76A4.94,4.94,0,0,1,2.16,107a12.36,12.36,0,0,1-.52,2.18c-1,3-4.23,6.92-7.92,5.6-2.67-1-4.41-3.46-5.51-6.15-2,3-5.87,4.25-8.63,2.18-1.81,4.6-4.93,8.76-9.18,11-6.15,3.3-15.65,3.65-21.61-.21a36.69,36.69,0,0,1-6.31,3c-6.94,2.53-14.78,3.8-22.06,2A23.43,23.43,0,0,1-95.8,113.25c-.12-.26-.22-.52-.32-.78-.09.56-.18,1.13-.24,1.72-2.12,20.87,11,26.17,18.87,27.48a6.5,6.5,0,0,0-1.07,1.09c-1,1.23-1.4,3.24-.25,4.5a4.3,4.3,0,0,0,2.64,1.38c-3.29,2.49-5.53,7-2.48,10.34a4.67,4.67,0,0,0,4,1.54c-4.88,4.89-12.69,16.23-.32,31,15.22,18.21,47.26,4.87,53.93-9.33a5.44,5.44,0,0,0,.48.48c2,1.76,4.42.39,5.37-1.64a7.77,7.77,0,0,0,.52-4.8c3.05.25,4.27-1.46,4.31-4.41.06-3.52-2.5-7.78-4.6-10.45a9.35,9.35,0,0,0-1.54-1.54,8.1,8.1,0,0,0,5.64-5.08c1.29-3.26-.7-7.39-3.66-10a8.27,8.27,0,0,0,4.6-3.58,5.81,5.81,0,0,0,.4-5.28A12.44,12.44,0,0,0-8.72,137c2.33,2.67,5.57,3.29,8,.35a7,7,0,0,0,1.25-2.39c.64,2.47,2.37,4.08,5.64,3,2.86-1,3.7-3.61,3.75-6.33a5,5,0,0,0,5.78.49,5.88,5.88,0,0,0,1.58-1.8,7,7,0,0,0,5.91,4.45,11.61,11.61,0,0,0,10.39-5,4.46,4.46,0,0,0,1.67,2.33,4.28,4.28,0,0,0,3.08.68c-.7,1.52-1,3.23-.29,4.47,1.08,1.79,3.49,2,5.33,1.29-.17.41-.33.81-.46,1.21-1,3-.61,7.2,1.57,9.63A6.38,6.38,0,0,0,51.06,151a16.25,16.25,0,0,0-1.35,2.4c-1.28,2.76-1.6,6.9.71,9.19a3.42,3.42,0,0,0,1.72.94,4.81,4.81,0,0,0,1.32,4.36,3.52,3.52,0,0,0,3.06,1.22c-1.9,4.86,3.46,20.65,31.88,15.69,29.08-5.08,37.29-29.71,23-37a3.46,3.46,0,0,0,2.48-2.42,4,4,0,0,0-1.56-3.9c4.59.22,14.77-1,20.3-14.85C137.58,114.24,128.78,101.45,116.85,95.13Z"/><path class="cls-19" d="M59.16,176.31a13.31,13.31,0,0,1,.5-10.84q.24-.48.51-1a16.51,16.51,0,0,1-2.78-2.65c-3-3.53-3.55-7.74-1.17-11.8a9.1,9.1,0,0,1-1.94-.77c-4.66-2.48-6.8-7.27-6.42-12.46a20.93,20.93,0,0,1,1.42-6.74,10.45,10.45,0,0,1-5.88-2.23,14.32,14.32,0,0,1-5.56-8.75,14,14,0,0,1-8.23,4.38,15.36,15.36,0,0,1-12-3,7,7,0,0,1-2,3.6c-2.22,2.19-5.9,3.21-8.52,1a8.87,8.87,0,0,1-2.43-3.19,12.21,12.21,0,0,1-11.23,6.39,12.76,12.76,0,0,1-2.78-.4,6.5,6.5,0,0,1-1.06,3.1c-1.24,1.9-3.73,3.61-6.09,2.93a9.68,9.68,0,0,1-.11,5.57,6,6,0,0,1-2.28,2.68,12.68,12.68,0,0,1,3.13,4.55,8.82,8.82,0,0,1-3.23,10.58,15,15,0,0,1-4.2,2c5.08.3,9.35,5.14,10.87,9.14,2.17,5.7-2.29,7.62-2.42,7.77,3,.24,4.26-1.47,4.3-4.41.06-3.52-2.5-7.78-4.6-10.45a9.35,9.35,0,0,0-1.54-1.54,8.1,8.1,0,0,0,5.64-5.08c1.29-3.26-.7-7.39-3.66-10a8.27,8.27,0,0,0,4.6-3.58,5.81,5.81,0,0,0,.4-5.28A12.44,12.44,0,0,0-8.72,137c2.33,2.67,5.57,3.29,8,.35a7,7,0,0,0,1.25-2.39c.64,2.47,2.37,4.08,5.64,3,2.86-1,3.7-3.61,3.75-6.33a5,5,0,0,0,5.78.49,5.88,5.88,0,0,0,1.58-1.8,7,7,0,0,0,5.91,4.45,11.61,11.61,0,0,0,10.39-5,4.46,4.46,0,0,0,1.67,2.33,4.28,4.28,0,0,0,3.08.68c-.7,1.52-1,3.23-.29,4.47,1.08,1.79,3.49,2,5.33,1.29-.17.41-.33.81-.46,1.21-1,3-.61,7.2,1.57,9.63A6.38,6.38,0,0,0,51.06,151a16.25,16.25,0,0,0-1.35,2.4c-1.28,2.76-1.6,6.9.71,9.19a3.42,3.42,0,0,0,1.72.94,4.81,4.81,0,0,0,1.32,4.36,3.52,3.52,0,0,0,3.06,1.22c-1,2.5,0,7.86,5,11.83A20.88,20.88,0,0,1,59.16,176.31Z"/><path class="cls-20" d="M2.41,53.15c-.43-1.3-3.95.67-4.63.91A19.29,19.29,0,0,0-9,57.92c-2.5,2.27-5,7.71-3.71,11.33,0,.44.09.88.13,1.28a.63.63,0,0,0,.57.58c1.44.17,3.52-.92,4.76-1.59A28.49,28.49,0,0,0-.81,65.33a11.56,11.56,0,0,0,3.05-5.61A12.61,12.61,0,0,0,2.59,56,10.83,10.83,0,0,0,2.41,53.15Z"/><path class="cls-20" d="M24.82,37.81a.39.39,0,0,0-.53.33c-.45,3.51-1,7.43,1.48,10.28a5.94,5.94,0,0,0,4,1.75l.42.08a4.1,4.1,0,0,0,1.16,0A4.1,4.1,0,0,0,32.65,50l.54-.08a.41.41,0,0,0,.26-.22c.7-2.11-.4-5-1.63-6.64A17.55,17.55,0,0,0,24.82,37.81Z"/><path class="cls-20" d="M46.24,39.8c-4.46,1.11-11.82,4.83-11,10.21a5,5,0,0,0,.2,2.68c.51.83,1.88.64,2.66.64a9.23,9.23,0,0,0,7.33-4.25c1.6-2.53,1.42-5.92,1.42-8.77A.56.56,0,0,0,46.24,39.8Z"/><path class="cls-20" d="M66.63,73.65c1.63-3,1.68-7.38,1.2-10.67a.51.51,0,0,0-.72-.45,22.85,22.85,0,0,0-9.31,7,8.49,8.49,0,0,0-2.35,5.58,11.92,11.92,0,0,0,.86,3.9c.3.89,1.49.41,2.07.23C61.8,78.18,64.84,77,66.63,73.65Z"/><path class="cls-20" d="M69.17,84.79a8.56,8.56,0,0,0-8-3.38,5.77,5.77,0,0,0-3,1.3c-.61.7.58,2.58.94,3.3a7.12,7.12,0,0,0,2.75,3.64c1.25.86,2.69.84,4.11,1.17a19.93,19.93,0,0,1,5.55,2,.43.43,0,0,0,.65-.29c.28-1-.29-2.47-.61-3.43A14.63,14.63,0,0,0,69.17,84.79Z"/><path class="cls-20" d="M105.1,122.71c-3.44-.44-7.63-.58-10.72,1.29-1.81,1.1-3.75,2.88-3.77,5.16a3.58,3.58,0,0,0,2.89,3.43,8.48,8.48,0,0,0,8.39-2.39,15.18,15.18,0,0,0,2.24-3.31,11.17,11.17,0,0,0,1.46-3.57A.55.55,0,0,0,105.1,122.71Z"/><g class="cls-21"><path class="cls-20" d="M2.41,53.15a.54.54,0,0,0-.28-.33A25.11,25.11,0,0,1,.21,56.35,78.11,78.11,0,0,1-4.27,63a31.83,31.83,0,0,1-8.26,7.65.62.62,0,0,0,.54.46c1.44.17,3.52-.92,4.76-1.59A28.49,28.49,0,0,0-.81,65.33a11.56,11.56,0,0,0,3.05-5.61A12.61,12.61,0,0,0,2.59,56,10.83,10.83,0,0,0,2.41,53.15Z"/><path class="cls-20" d="M26,42.42a34,34,0,0,1-1.78-4.13c-.43,3.47-1,7.33,1.51,10.13a5.94,5.94,0,0,0,4,1.75l.42.08a4.1,4.1,0,0,0,1.16,0A4.1,4.1,0,0,0,32.65,50l.52-.08C29.9,48.58,27.62,45.51,26,42.42Z"/><path class="cls-20" d="M46.72,40a38.16,38.16,0,0,1-4.94,7.4A30.86,30.86,0,0,1,35.69,53c.61.52,1.76.38,2.44.38a9.23,9.23,0,0,0,7.33-4.25c1.6-2.53,1.42-5.92,1.42-8.77A.49.49,0,0,0,46.72,40Z"/><path class="cls-20" d="M67.72,62.7a38.59,38.59,0,0,1-4.43,7.39c-2.26,3-4.33,6.29-6.8,9.18.46.45,1.4.08,1.89-.07,3.42-1,6.46-2.24,8.25-5.55,1.63-3,1.68-7.38,1.2-10.67A.54.54,0,0,0,67.72,62.7Z"/><path class="cls-20" d="M68.09,88.13c-2.83-2.78-6.35-4.07-9.93-5.47l0,0c-.61.7.58,2.58.94,3.3a7.12,7.12,0,0,0,2.75,3.64c1.25.86,2.69.84,4.11,1.17a19.93,19.93,0,0,1,5.55,2,.42.42,0,0,0,.12,0A22,22,0,0,0,68.09,88.13Z"/><path class="cls-20" d="M91.87,131.78a4.38,4.38,0,0,0,1.63.81,8.48,8.48,0,0,0,8.39-2.39,15.18,15.18,0,0,0,2.24-3.31,11.17,11.17,0,0,0,1.46-3.57.77.77,0,0,0,0-.15A26.54,26.54,0,0,0,91.87,131.78Z"/></g><path class="cls-20" d="M.61,276.09s-1-5.51-9.12-7.11a13.31,13.31,0,0,1,12,2.4s-.78-2.84-5.4-6.42a12.75,12.75,0,0,1,11.49,7.35,16.67,16.67,0,0,1,5.09-7.26,27.54,27.54,0,0,0-.66,7.16,15.83,15.83,0,0,1,8.48-7.72s-.38,5.65-1.42,6.78c0,0,4-1.79,3.21-7.91a12.23,12.23,0,0,1,4.42,7.81s1.13-5.65.47-8.09A35.35,35.35,0,0,1,33.91,271s2.26-4.52,8.76-5.94A15.66,15.66,0,0,0,39,271.17s5.37-5.17,12.43-3.48c0,0-4.62,4.15-5.37,8.1Z"/><path class="cls-22" d="M46.25,269.11c-3.23.77-5.49,2.74-8.25,4.43a.38.38,0,0,1-.56-.22,7.52,7.52,0,0,1,.86-5.65,11.77,11.77,0,0,0-4.09,5.58.39.39,0,0,1-.63.17,19.66,19.66,0,0,1-3.28-5.23,8.07,8.07,0,0,1-.47,1.83c-.32.8-1.55,3.74-2.89,3-.48-.27-.48-1.18-.54-1.64a11.06,11.06,0,0,0-1.17-4,8.56,8.56,0,0,1-5.47,5.39.39.39,0,0,1-.47-.47A50.28,50.28,0,0,0,20.67,267a39,39,0,0,0-6.14,6.12.37.37,0,0,1-.53,0c-.92-.78-1.05-2.38-1.16-3.51a9.4,9.4,0,0,1,0-1.59c-.94,1.79-1.44,3.73-2.44,5.47a.38.38,0,0,1-.65,0A17.53,17.53,0,0,0,3,267.62a7.71,7.71,0,0,1,1.63,5.82.37.37,0,0,1-.46.26c-1.82-.28-3.07-1.81-4.61-2.67-2.33-1.29-4.47-2-6.82-1.75,7,1.89,7.86,6.81,7.86,6.81l45.45-.3c.52-2.71,2.84-5.5,4.25-7A11.8,11.8,0,0,0,46.25,269.11Z"/><path class="cls-23" d="M362.3,276s-3.29-5.37-5.26-5.88-3.65-.93-6.28,2.57c-2.26,3.23-1.88,3.08-1.68,4.78s0,2.87,2.41,3.05C357.54,281,363.45,277.92,362.3,276Z"/><g class="cls-24"><path class="cls-23" d="M349.08,277.46c-.2-1.7-.58-1.55,1.68-4.78,2.63-3.5,4.31-3.07,6.28-2.57,1.12.29,2.66,2.15,3.79,3.7-.48-.49-4.12-4-6.07-3s-3.18,4.57-3.08,6.7,10.48.38,10.43-1.84a3.06,3.06,0,0,1,.19.29c1.15,1.93-4.76,5-10.81,4.52C349.05,280.33,349.28,279.15,349.08,277.46Z"/></g><path class="cls-23" d="M83.45,278.6s-1.75-5-3.28-5.77-2.83-1.41-5.62,1c-2.43,2.25-2.09,2.2-2.23,3.62s-.53,2.36,1.44,2.94C78.65,281.83,84.05,280.38,83.45,278.6Z"/><g class="cls-24"><path class="cls-23" d="M72.32,277.44c.14-1.42-.2-1.37,2.23-3.62,2.79-2.4,4.09-1.76,5.62-1,.87.44,1.8,2.23,2.45,3.71-.31-.48-2.66-4-4.46-3.52s-3.42,3.19-3.71,5,8.54,2.17,8.89.34l.11.28c.6,1.78-4.8,3.23-9.69,1.78C71.79,279.8,72.19,278.87,72.32,277.44Z"/></g><path class="cls-11" d="M133.28,264s1.92-1.72,1.78-2.11-1.95.64-1.95.64.27-2.61-.08-2.84-1.17,1.71-1.17,1.71-.37-2.29-1-2.3-.89,1.33-1,2.21c-1.29-1.78-3.53-2.15-2.71-.1-1.25-1.16-3-1.08-2.34.65,0,0-.93-.72-1.49-.34s.72,2,1.48,2.43Z"/><path class="cls-25" d="M132.74,263.88s1.55-1.11,1.26-1.33-1.48.67-1.48.67.52-2.14.15-2.14-.74,2.06-.74,2.06-.08-2.43-.89-2.58-.66,2.66-.66,2.66-.89-2.07-1.77-2.22,0,2.22,0,2.22-1.78-2-2.52-1.85.59,1.85.59,1.85a10,10,0,0,0-2.14-1c-.59-.08.89,1.62.89,1.62Z"/><path class="cls-11" d="M161.6,264.06s.82-1,.65-1.24-1.21.65-1.23.6.42-2,0-2.21-.93,1.3-.93,1.3-.26-1.47-.85-1.57-.37,1.95-.42,1.95-1-.66-1.52-.45.07,1.62.07,1.62Z"/><path class="cls-25" d="M161.33,264s.63-.7.4-.77-.95.62-.95.62.33-1.8,0-1.8-.85,1.4-.85,1.4,0-1.73-.44-1.81-.48,2-.48,2-.81-.85-1.18-.85.3,1.25.3,1.25Z"/><path class="cls-11" d="M98.21,264.22s1.63-1.25,1.32-1.77-1.5.5-1.5.5.66-1.67.23-2-.91.95-.91.95.34-2.34-.81-2.4-.41,2.53-.41,2.53-.79-.63-1.36-.4.36,1.17.36,1.17-.95-.5-1.29,0S95,264.26,95,264.26Z"/><path class="cls-25" d="M98,264.16s1-.88.87-1.14-1.29.7-1.29.7.57-1.83.35-1.85-.78,1.09-.78,1.09.11-2.73-.59-2.79,0,2.74,0,2.74-.83-1.15-1.18-1.06.44,1.67.44,1.67a2,2,0,0,0-1.09-.58c-.53,0,.93,1.33.93,1.33Z"/><path class="cls-11" d="M182.76,264.89s.94-2.29.48-2.59-1.13,1.32-1.13,1.32-.05-1.56-.73-1.62-.37,1.21-.37,1.21-.41-1.77-1.24-1.61.11,1.64.11,1.64-1.14-.56-1.51-.19.67,1.24.67,1.24-1.64-.45-2.13-.05.92.78.92.78Z"/><path class="cls-11" d="M236.63,264s1.91-1.72,1.78-2.11-2,.64-2,.64.27-2.61-.08-2.84-1.17,1.71-1.17,1.71-.36-2.29-1-2.3-.89,1.33-.95,2.21c-1.29-1.78-3.53-2.15-2.71-.1-1.25-1.16-3-1.08-2.34.65,0,0-.93-.72-1.5-.34s.73,2,1.48,2.43Z"/><path class="cls-25" d="M236.08,263.88s1.56-1.11,1.26-1.33-1.48.67-1.48.67.52-2.14.15-2.14-.74,2.06-.74,2.06-.07-2.43-.88-2.58-.67,2.66-.67,2.66-.89-2.07-1.77-2.22,0,2.22,0,2.22-1.77-2-2.51-1.85.59,1.85.59,1.85a10,10,0,0,0-2.14-1c-.59-.08.89,1.62.89,1.62Z"/><path class="cls-11" d="M265,264.06s.82-1,.64-1.24-1.2.65-1.22.6.42-2,0-2.21-.92,1.3-.92,1.3-.26-1.47-.86-1.57-.36,1.95-.42,1.95-1-.66-1.52-.45.08,1.62.08,1.62Z"/><path class="cls-25" d="M264.67,264s.63-.7.41-.77-1,.62-1,.62.33-1.8,0-1.8-.84,1.4-.84,1.4,0-1.73-.45-1.81-.47,2-.47,2-.81-.85-1.19-.85.3,1.25.3,1.25Z"/><path class="cls-11" d="M201.55,264.22s1.63-1.25,1.32-1.77-1.49.5-1.49.5.65-1.67.22-2-.9.95-.9.95.34-2.34-.82-2.4-.41,2.53-.41,2.53-.79-.63-1.36-.4.37,1.17.37,1.17-.95-.5-1.29,0,1.11,1.49,1.11,1.49Z"/><path class="cls-25" d="M201.32,264.16s1.05-.88.88-1.14-1.29.7-1.29.7.56-1.83.35-1.85-.79,1.09-.79,1.09.11-2.73-.59-2.79,0,2.74,0,2.74-.83-1.15-1.18-1.06.44,1.67.44,1.67a2,2,0,0,0-1.09-.58c-.52,0,.94,1.33.94,1.33Z"/></g></g></g></svg>