<svg xmlns="http://www.w3.org/2000/svg" viewBox="0 0 67.71 12.61"><defs><style>.cls-1{fill:#fff;}</style></defs><title>select</title><g id="Camada_2" data-name="Camada 2"><g id="Layer_1" data-name="Layer 1"><path class="cls-1" d="M6.7,2.3A2.09,2.09,0,0,1,4.5,4.51a3,3,0,0,1-.76-.1,2.17,2.17,0,0,1-.65-.31,1.47,1.47,0,0,1-.48-.55,1.52,1.52,0,0,1-.17-.71,1.41,1.41,0,0,1,.12-.59,1.27,1.27,0,0,1,.37-.43,2.1,2.1,0,0,1,.5-.24,2.39,2.39,0,0,1,.62-.08,1.33,1.33,0,0,1,.4.05,1,1,0,0,1,.34.16A.76.76,0,0,1,5,2a.72.72,0,0,1,.09.37.68.68,0,0,1-.23.51.85.85,0,0,1-.55.2A.69.69,0,0,1,4,3a.47.47,0,0,1-.22-.22l.11,0H4a.5.5,0,0,0,.33-.08.28.28,0,0,0,.11-.25.29.29,0,0,0-.12-.25A.53.53,0,0,0,4,2.15a.92.92,0,0,0-.29,0,.6.6,0,0,0-.24.12.79.79,0,0,0-.19.22.6.6,0,0,0-.06.27.84.84,0,0,0,.3.7,1.56,1.56,0,0,0,.92.23,1.22,1.22,0,0,0,1-.41,1.46,1.46,0,0,0,.37-1,1.16,1.16,0,0,0-.17-.64,1.49,1.49,0,0,0-.5-.5A2,2,0,0,0,4.48.9,3.24,3.24,0,0,0,3.76.82,3.32,3.32,0,0,0,2.9.93a2.19,2.19,0,0,0-.68.35,1.6,1.6,0,0,0-.49.61,1.92,1.92,0,0,0-.17.81,1.51,1.51,0,0,0,.31.9,3.6,3.6,0,0,0,.91.85l1.14.77L5.05,6A3.71,3.71,0,0,1,6,7.16a3.25,3.25,0,0,1,.31,1.39A3,3,0,0,1,6,9.81a2.4,2.4,0,0,1-.75,1,3.5,3.5,0,0,1-1.06.57,4.08,4.08,0,0,1-1.3.19,4.77,4.77,0,0,1-1-.1A3.32,3.32,0,0,1,1,11.12a1.88,1.88,0,0,1-.74-.64A1.6,1.6,0,0,1,0,9.58,1.84,1.84,0,0,1,.42,8.32a1.5,1.5,0,0,1,1.19-.48,1.7,1.7,0,0,1,.57.09,1.58,1.58,0,0,1,.46.25A1.13,1.13,0,0,1,3,8.6a1.32,1.32,0,0,1,.11.53,1.15,1.15,0,0,1-.26.82,1,1,0,0,1-.79.27.79.79,0,0,1-.5-.16.52.52,0,0,1-.21-.43.49.49,0,0,1,.11-.36.42.42,0,0,1,.33-.12h.12a.4.4,0,0,0-.11.12.24.24,0,0,0,0,.13.19.19,0,0,0,.08.18A.34.34,0,0,0,2,9.64a.27.27,0,0,0,.24-.1.56.56,0,0,0,.08-.32A.5.5,0,0,0,2.29,9a.66.66,0,0,0-.2-.21.76.76,0,0,0-.26-.11,1,1,0,0,0-.3,0,.83.83,0,0,0-.66.25,1.07,1.07,0,0,0-.22.74,1,1,0,0,0,.13.51,1.29,1.29,0,0,0,.39.38,1.61,1.61,0,0,0,.49.19,2.07,2.07,0,0,0,.57.07,1.83,1.83,0,0,0,.71-.14,1.63,1.63,0,0,0,.58-.4,2,2,0,0,0,.37-.59A2.11,2.11,0,0,0,4,8.87,1.8,1.8,0,0,0,3.75,8,4.31,4.31,0,0,0,3,7L2,6.07l-1-.9A5.06,5.06,0,0,1,.27,4.08,2.47,2.47,0,0,1,0,3,3.18,3.18,0,0,1,.28,1.68a2.58,2.58,0,0,1,.79-1A3.57,3.57,0,0,1,2.18.17,5.66,5.66,0,0,1,3.61,0a4.36,4.36,0,0,1,1.1.14,3.5,3.5,0,0,1,1,.41,2.3,2.3,0,0,1,.78.77A1.91,1.91,0,0,1,6.7,2.3Z"/><path class="cls-1" d="M14.45,10.6l-.29.29a2.9,2.9,0,0,1-.22.19l.48.71-.45.26-.48-.59a2.65,2.65,0,0,1-.54.25,2.87,2.87,0,0,1-.61.15v.75l-.57,0,.05-.69a3.61,3.61,0,0,1-.63-.06,5,5,0,0,1-.69-.18l-.35.76-.57-.31.38-.71a3.78,3.78,0,0,1-.56-.4,2.47,2.47,0,0,1-.46-.51l-.68.43L8,10.45l.74-.39a3.56,3.56,0,0,1-.23-.62,5,5,0,0,1-.11-.66L7.69,9,7.5,8.39l.87-.2a3.87,3.87,0,0,1,.11-.64,2.09,2.09,0,0,1,.2-.5l-.62-.37.29-.48L9,6.61a2.26,2.26,0,0,1,.34-.35A2.63,2.63,0,0,1,9.7,6l-.52-.76.57-.28.42.81.37-.1.29-.06L11,4.76l.45.14-.11.66a1.86,1.86,0,0,1,.48.06,2.44,2.44,0,0,1,.44.19l.63-.62.35.3-.59.65a1.72,1.72,0,0,1,.26.32,2.06,2.06,0,0,1,.21.42l.74-.25L14,7.1l-.72.25a1.32,1.32,0,0,1,.09.3c0,.11,0,.23.07.36l-3,.51v.07a4,4,0,0,0,.1.87,3.32,3.32,0,0,0,.3.78,1.89,1.89,0,0,0,.58.66,1.4,1.4,0,0,0,.76.21,2.12,2.12,0,0,0,.9-.22,4.74,4.74,0,0,0,1-.7Zm-2.6-3.12a.56.56,0,0,0-.2-.41.82.82,0,0,0-.52-.15,1.36,1.36,0,0,0-.77.25,1.21,1.21,0,0,0-.48.64Z"/><path class="cls-1" d="M18.87.22l-1.3,10.86-2-.19.1-.58.78.11,0-1.17-.89-.05.05-.53h.84l0-1.11-.93,0,.07-.46h.87l0-1.22-1-.07.07-.63,1,.17v-1l-1-.11.08-.52.89,0V2.53l-1,0,.11-.59.92.09,0-1L15.5.86l.08-.64Z"/><path class="cls-1" d="M26.55,10.6l-.29.29a2.9,2.9,0,0,1-.22.19l.47.71-.44.26-.48-.59a2.65,2.65,0,0,1-.54.25,3,3,0,0,1-.61.15v.75l-.57,0,.05-.69a3.52,3.52,0,0,1-.63-.06,5,5,0,0,1-.69-.18l-.35.76-.57-.31.38-.71a3.88,3.88,0,0,1-.57-.4,2.74,2.74,0,0,1-.45-.51l-.68.43-.28-.45.74-.39a2.9,2.9,0,0,1-.23-.62,3.79,3.79,0,0,1-.11-.66L19.79,9l-.19-.56.87-.2a3.87,3.87,0,0,1,.11-.64,2.09,2.09,0,0,1,.2-.5l-.62-.37.29-.48.61.41a2.26,2.26,0,0,1,.34-.35A2.63,2.63,0,0,1,21.8,6l-.52-.76.57-.28.42.81.37-.1.29-.06.17-.83.45.14-.11.66a1.86,1.86,0,0,1,.48.06,2.44,2.44,0,0,1,.44.19L25,5.19l.36.3-.6.65a1.4,1.4,0,0,1,.26.32,2.07,2.07,0,0,1,.22.42L26,6.63l.13.47-.72.25a2.13,2.13,0,0,1,.09.3q0,.16.06.36l-2.95.51v.07a4,4,0,0,0,.1.87,3.32,3.32,0,0,0,.3.78,1.89,1.89,0,0,0,.58.66,1.39,1.39,0,0,0,.75.21,2.13,2.13,0,0,0,.91-.22,5,5,0,0,0,1-.7ZM24,7.48a.57.57,0,0,0-.21-.41.78.78,0,0,0-.51-.15,1.36,1.36,0,0,0-.77.25,1.21,1.21,0,0,0-.48.64Z"/><path class="cls-1" d="M33.43,9.73a4.25,4.25,0,0,1-1.33,1.2,3.17,3.17,0,0,1-1.58.4,3,3,0,0,1-2.17-.82,2.85,2.85,0,0,1-.83-2.13,3.08,3.08,0,0,1,.95-2.26,3.11,3.11,0,0,1,2.25-1,3.92,3.92,0,0,1,.71.06,2.4,2.4,0,0,1,.59.19,1.3,1.3,0,0,1,.52.42,1,1,0,0,1,.17.59,1,1,0,0,1-.26.61,2.83,2.83,0,0,1-.77.61l-.28-.26a1.42,1.42,0,0,0,.22-.28.89.89,0,0,0,.12-.29L31,6.63l.09-.28.69.1a.61.61,0,0,0-.11-.29.82.82,0,0,0-.26-.22,1.48,1.48,0,0,0-.29-.12,1.86,1.86,0,0,0-.33,0h-.19l-.2,0,.15,1-.29.07L30,6a1.48,1.48,0,0,0-.51.38,2,2,0,0,0-.34.6l.88.26-.13.32L29,7.36a1.42,1.42,0,0,0-.08.34,3.23,3.23,0,0,0,0,.46,1.69,1.69,0,0,0,0,.23,1.43,1.43,0,0,0,0,.22l.72-.25.2.37-.83.3a1.59,1.59,0,0,0,.17.39,3.26,3.26,0,0,0,.3.41l.58-.45.28.23-.5.48a1.51,1.51,0,0,0,.47.25,2.23,2.23,0,0,0,.6.08L31,9.67h.33l.06.73a1.8,1.8,0,0,0,.45-.09,2.41,2.41,0,0,0,.44-.2l-.23-.63.29-.11.25.51a1.33,1.33,0,0,0,.22-.2,2.18,2.18,0,0,0,.24-.27Z"/><path class="cls-1" d="M36.91,11.81l-2.68-.34,1-6.18h1.2Zm.21-8L37,4.15l-.55-.29a.57.57,0,0,1-.2.18.88.88,0,0,1-.24.11l.13.52-.43.06-.11-.55a.53.53,0,0,1-.2-.07L35.17,4l-.42.38L34.46,4,35,3.68a.55.55,0,0,1-.07-.25,1,1,0,0,1,0-.29l-.57-.35.21-.35.53.36a.65.65,0,0,1,.17-.16.76.76,0,0,1,.22-.11l-.1-.75h.4l0,.7a1.49,1.49,0,0,1,.25.07.91.91,0,0,1,.22.11l.44-.36.3.3-.51.34a.71.71,0,0,1,.07.22c0,.09,0,.22,0,.36Zm-1,6.49A.54.54,0,0,0,36,9.84a.57.57,0,0,0-.42-.17.56.56,0,0,0-.4.17.54.54,0,0,0-.17.41.52.52,0,0,0,.17.41.52.52,0,0,0,.4.17.54.54,0,0,0,.42-.17A.52.52,0,0,0,36.15,10.25Zm0-1.72a.4.4,0,0,0-.45-.45.48.48,0,0,0-.35.12.47.47,0,0,0-.11.33.51.51,0,0,0,.11.35A.52.52,0,0,0,35.7,9a.39.39,0,0,0,.45-.46Z"/><path class="cls-1" d="M45.43,7.67l-.79.22,0,.25a2.81,2.81,0,0,1,0,.29,3.29,3.29,0,0,1,0,.45,2.42,2.42,0,0,1-.1.45l.64.29-.32.56-.5-.36a2.71,2.71,0,0,1-.63.88,2.92,2.92,0,0,1-.9.56L43,12l-.58.15-.12-.75-.33.05h-.24a3.08,3.08,0,0,1-.75-.09,2.9,2.9,0,0,1-.7-.3l-.47.73-.51-.29.54-.76a2.56,2.56,0,0,1-.45-.48,2.84,2.84,0,0,1-.33-.56l-.79.25-.11-.54.72-.16a2.67,2.67,0,0,1-.08-.45,3,3,0,0,1,0-.4c0-.13,0-.26,0-.38a1.9,1.9,0,0,1,.08-.36l-.71-.23.14-.54.73.3a2.83,2.83,0,0,1,.4-.7A2.52,2.52,0,0,1,40,6l-.42-.67L40.09,5l.42.72a3,3,0,0,1,.6-.21,2.67,2.67,0,0,1,.64-.07,2.56,2.56,0,0,1,.62.07,2.39,2.39,0,0,1,.57.19L43.27,5l.5.28-.35.62a3,3,0,0,1,.65.63,3.59,3.59,0,0,1,.44.8L45.29,7Zm-2.53.76a3.35,3.35,0,0,0-.07-.73,2.12,2.12,0,0,0-.25-.62,1.36,1.36,0,0,0-.48-.5,1.26,1.26,0,0,0-.65-.17,1.29,1.29,0,0,0-.65.17,1.42,1.42,0,0,0-.49.51,2.11,2.11,0,0,0-.24.62,3.24,3.24,0,0,0-.08.72,3.55,3.55,0,0,0,.08.76,2,2,0,0,0,.24.61,1.32,1.32,0,0,0,.48.51,1.44,1.44,0,0,0,1.32,0,1.32,1.32,0,0,0,.48-.51,2.34,2.34,0,0,0,.23-.61A3,3,0,0,0,42.9,8.43Z"/><path class="cls-1" d="M53.21,10.83l-2.45.44c0-1.3.06-2.18.07-2.65s0-.77,0-.89a1.6,1.6,0,0,0-.19-.88.64.64,0,0,0-.58-.3,1.18,1.18,0,0,0-.75.33,4.07,4.07,0,0,0-.83,1l-.19,3.28-1.15.16-.68-5.82L48.66,5l-.1,1.83a3.55,3.55,0,0,1,1-.95,2.12,2.12,0,0,1,1.1-.32,1.58,1.58,0,0,1,1.25.57,3.78,3.78,0,0,1,.71,1.72ZM52.16,8.34a.4.4,0,0,0-.1-.3.41.41,0,0,0-.31-.1.39.39,0,0,0-.3.1.41.41,0,0,0-.11.3.44.44,0,0,0,.11.32.39.39,0,0,0,.3.1.41.41,0,0,0,.31-.1A.44.44,0,0,0,52.16,8.34Zm.23,1.55a.49.49,0,0,0-.15-.36.53.53,0,0,0-.37-.15.54.54,0,0,0-.4.13.64.64,0,0,0,0,.77.54.54,0,0,0,.4.13.53.53,0,0,0,.37-.15A.48.48,0,0,0,52.39,9.89Z"/><path class="cls-1" d="M60.5,10.43v.34a9.46,9.46,0,0,1-1.94.66,8.34,8.34,0,0,1-1.9.22,4.1,4.1,0,0,1-1-.1,2.47,2.47,0,0,1-.77-.3,1.53,1.53,0,0,1-.61-.6,1.69,1.69,0,0,1-.21-.86A2,2,0,0,1,55,8.25a7.77,7.77,0,0,1,2.59-1.17,1.16,1.16,0,0,0-.48-.62,1.54,1.54,0,0,0-.84-.21,2.24,2.24,0,0,0-1,.23,2.48,2.48,0,0,0-.8.66l-.34-.33a3.63,3.63,0,0,1,1.33-1.23,3.92,3.92,0,0,1,1.83-.41,2.41,2.41,0,0,1,1.49.47,3.6,3.6,0,0,1,1.09,1.42,6.37,6.37,0,0,1,.52,1.58A8.59,8.59,0,0,1,60.5,10.43ZM58,10a10.63,10.63,0,0,0,0-1.14,10.41,10.41,0,0,0-.16-1.12c-.4.11-.76.24-1.08.36a6.6,6.6,0,0,0-.84.41l.65,2.63A5.61,5.61,0,0,0,57.4,11a1.71,1.71,0,0,0,.59-.19c0-.15,0-.3,0-.45Zm1.51-1.74a.46.46,0,0,0-.11-.35.58.58,0,0,0-.68,0,.46.46,0,0,0-.12.35.45.45,0,0,0,.12.34.58.58,0,0,0,.68,0A.45.45,0,0,0,59.51,8.22Zm.26,1.71a.58.58,0,0,0-.58-.58.6.6,0,0,0-.42.16.57.57,0,0,0-.17.42.55.55,0,0,0,.17.41.61.61,0,0,0,.42.17.57.57,0,0,0,.41-.17A.53.53,0,0,0,59.77,9.93Z"/><path class="cls-1" d="M67.71,6.17l-.62.23a1,1,0,0,0,0,.15v.16a1.39,1.39,0,0,1,0,.3.81.81,0,0,1-.11.27l.55.39L67.17,8l-.49-.39a.84.84,0,0,1-.23.18,2.48,2.48,0,0,1-.29.17l-.32-.45A.83.83,0,0,0,66,7.26.79.79,0,0,0,66,7a.46.46,0,0,0-.18-.4,1,1,0,0,0-.54-.13,1.25,1.25,0,0,0-.83.42,5.7,5.7,0,0,0-.94,1.26l.09,3.49-2.18-.32,1-6,1-.2,0,1.87c.13-.19.27-.36.39-.51a4.51,4.51,0,0,1,.37-.38L64,5.51l.43-.22.23.52a4.66,4.66,0,0,1,.45-.22,2.06,2.06,0,0,1,.47-.13l0-.64.47,0-.1.58a1.28,1.28,0,0,1,.61.16A.87.87,0,0,1,67,6l.58-.3Zm-4.59,4.15A.52.52,0,0,0,63,9.94a.5.5,0,0,0-.37-.15.49.49,0,0,0-.36.15.53.53,0,0,0-.16.38.45.45,0,0,0,.52.51.54.54,0,0,0,.39-.12A.53.53,0,0,0,63.12,10.32Zm0-1.56a.4.4,0,0,0-.1-.3.42.42,0,0,0-.32-.1.4.4,0,0,0-.3.1.45.45,0,0,0-.1.3.41.41,0,0,0,.1.3.4.4,0,0,0,.3.1.42.42,0,0,0,.32-.1A.38.38,0,0,0,63.15,8.76Z"/></g></g></svg>