<svg xmlns="http://www.w3.org/2000/svg" viewBox="0 0 167.06 38.44"><defs><style>.cls-1{fill:#f9f9f9;stroke:#3f3f3f;stroke-miterlimit:10;opacity:0.8;}</style></defs><title>tittle</title><g id="Camada_2" data-name="Camada 2"><g id="Layer_1" data-name="Layer 1"><path class="cls-1" d="M28.38,33.47l-3.11.73-2.11-6.41-12.6-.18L7.41,36.17.64,31.5,13.88,4.37,18.77,4ZM9.12,22.8,8.49,22a33.71,33.71,0,0,0-2.25,4.45,39,39,0,0,0-1.69,4.92l1.62.69a28.13,28.13,0,0,1,1.1-4.72A31.45,31.45,0,0,1,9.12,22.8Zm13,1.89-1-3.06L11.65,24l-.56,1.42ZM20.38,19.4,17.08,7.59l-4.53,13.6Z"/><path class="cls-1" d="M57.38,15.92c0,.36,0,.73,0,1.1s0,.75,0,1.13l-.89,18.07L37.17,16.66l-.8,16.77-7.1,0,2.11-5.69,3.41-.18L36.26,3,53.2,23.88c.09-1.12.19-2.24.3-3.35s.21-2.23.31-3.36c.13-1.33.22-2.56.28-3.69s.09-2.14.09-3.06a18,18,0,0,0-.67-5.13,11.05,11.05,0,0,0-2-3.92L52.66.64A16.78,16.78,0,0,1,56.2,7,30.08,30.08,0,0,1,57.38,15.92Zm-14.84-.43a1.34,1.34,0,0,0-.31-1,1.53,1.53,0,0,0-1.87,0,1.3,1.3,0,0,0-.32,1,1.11,1.11,0,0,0,1.25,1.25,1.27,1.27,0,0,0,.94-.31A1.3,1.3,0,0,0,42.54,15.49Zm4.88,5.38A1.63,1.63,0,0,0,47,19.71a1.51,1.51,0,0,0-1.13-.49,1.6,1.6,0,0,0-1.18.48,1.56,1.56,0,0,0-.49,1.17A1.47,1.47,0,0,0,44.64,22a1.62,1.62,0,0,0,1.18.46A1.56,1.56,0,0,0,47,22,1.55,1.55,0,0,0,47.42,20.87Zm4.41,5.32a1.35,1.35,0,0,0-.29-.93,1.26,1.26,0,0,0-.95-.31,1.28,1.28,0,0,0-1,.31,1.26,1.26,0,0,0-.32.93,1.13,1.13,0,0,0,1.27,1.27,1.27,1.27,0,0,0,.95-.32A1.37,1.37,0,0,0,51.83,26.19Z"/><path class="cls-1" d="M72.22,6.23q-1.22,4.61-2,8T69,19.76q-.63,3.42-1,6.92t-.4,7l-4.18.48c-.11-1.18-.18-2.37-.24-3.6s-.08-2.49-.08-3.79c0-3.25.17-6.7.5-10.33S64.41,9,65.06,5Zm-2.75,3.83-.63-.81a30.55,30.55,0,0,0-2.22,4.31,45.32,45.32,0,0,0-1.77,5.06l1.6.68a33.54,33.54,0,0,1,3-9.24Z"/><path class="cls-1" d="M104,34.25l-8.74,1L96,15.59,86.76,31,78.9,21.49a51.69,51.69,0,0,1-1.37,5.18A29.58,29.58,0,0,1,76,30.62a18.61,18.61,0,0,1-2.64,4,18.39,18.39,0,0,1-3.53,3.1l-.71-1.49A14.58,14.58,0,0,0,73.28,31,31.43,31.43,0,0,0,76,22.86L79.8,4.11,89,21.23,97.12,4.67l3.94.14ZM87,24.5,80.66,13.56l-.89,4.68L86,26.34Zm13.26-3.58v-.68l-1,.35a32.74,32.74,0,0,1-.66,4.88,32.1,32.1,0,0,1-1.4,4.63l1.76.28a45.62,45.62,0,0,0,1-5A35.47,35.47,0,0,0,100.25,20.92Z"/><path class="cls-1" d="M133.81,33.47l-3.11.73-2.11-6.41L116,27.61l-3.14,8.56-6.78-4.67L119.32,4.37,124.2,4ZM114.55,22.8l-.63-.81a36.34,36.34,0,0,0-2.25,4.45A39,39,0,0,0,110,31.36l1.62.69a28.13,28.13,0,0,1,1.1-4.72A32.64,32.64,0,0,1,114.55,22.8Zm13,1.89-1-3.06L117.08,24l-.56,1.42Zm-1.73-5.29-3.3-11.81L118,21.19Z"/><path class="cls-1" d="M146.52,6.23q-1.22,4.61-2,8c-.55,2.26-1,4.11-1.22,5.55-.43,2.28-.75,4.59-1,6.92s-.36,4.67-.39,7l-4.19.48c-.1-1.18-.18-2.37-.24-3.6s-.07-2.49-.07-3.79c0-3.25.16-6.7.49-10.33S138.71,9,139.36,5Zm-2.74,3.83-.64-.81a30.55,30.55,0,0,0-2.22,4.31,45.32,45.32,0,0,0-1.77,5.06l1.6.68a34.34,34.34,0,0,1,1.18-4.75A31.88,31.88,0,0,1,143.78,10.06Z"/><path class="cls-1" d="M166.56,10.06a6,6,0,0,1-1.67,4.43,6,6,0,0,1-4.41,1.68,7.5,7.5,0,0,1-2.12-.28,5.57,5.57,0,0,1-1.79-.85,4.11,4.11,0,0,1-1.79-3.49,3.78,3.78,0,0,1,.33-1.62,3.25,3.25,0,0,1,1-1.2,4.66,4.66,0,0,1,1.38-.67,6.07,6.07,0,0,1,1.72-.23,4,4,0,0,1,1.1.15,2.8,2.8,0,0,1,.94.43,2.65,2.65,0,0,1,.71.8,2.17,2.17,0,0,1,.24,1,1.8,1.8,0,0,1-.65,1.41,2.23,2.23,0,0,1-1.52.56,2.12,2.12,0,0,1-1-.19,1.37,1.37,0,0,1-.59-.62,2.27,2.27,0,0,0,.3.06h.28a1.51,1.51,0,0,0,.91-.22.78.78,0,0,0,.3-.69.83.83,0,0,0-.32-.7,1.62,1.62,0,0,0-.95-.23,3,3,0,0,0-.8.11,2,2,0,0,0-.67.34,1.83,1.83,0,0,0-.51.61,1.6,1.6,0,0,0-.18.75,2.23,2.23,0,0,0,.85,1.93,4.19,4.19,0,0,0,2.53.63,3.4,3.4,0,0,0,2.67-1.13,4,4,0,0,0,1-2.8,3.5,3.5,0,0,0-.47-1.8,4.2,4.2,0,0,0-1.38-1.37,5.27,5.27,0,0,0-1.68-.72,8.84,8.84,0,0,0-4.36.09,5.43,5.43,0,0,0-1.9,1,4.58,4.58,0,0,0-1.36,1.68,5.38,5.38,0,0,0-.45,2.25,4.29,4.29,0,0,0,.84,2.49A9.68,9.68,0,0,0,155.71,16l3.15,2.13L162,20.24a10.21,10.21,0,0,1,2.53,3.28,8.89,8.89,0,0,1,.84,3.85,8.51,8.51,0,0,1-.69,3.5,7,7,0,0,1-2.1,2.64,9.68,9.68,0,0,1-2.92,1.57,11.44,11.44,0,0,1-3.61.55,13.5,13.5,0,0,1-2.88-.29,9.15,9.15,0,0,1-2.42-.86,5.38,5.38,0,0,1-2-1.79A4.48,4.48,0,0,1,148,30.2a5.05,5.05,0,0,1,1.17-3.48,4.18,4.18,0,0,1,3.3-1.33,4.81,4.81,0,0,1,1.56.25,4.48,4.48,0,0,1,1.29.7,3.24,3.24,0,0,1,.94,1.16,3.51,3.51,0,0,1,.3,1.47,3.17,3.17,0,0,1-.72,2.27,2.91,2.91,0,0,1-2.19.75,2.2,2.2,0,0,1-1.38-.45,1.41,1.41,0,0,1-.59-1.19,1.46,1.46,0,0,1,.3-1,1.23,1.23,0,0,1,.93-.33h.33a1.26,1.26,0,0,0-.32.34.64.64,0,0,0-.1.35.61.61,0,0,0,.21.51,1.07,1.07,0,0,0,.62.16.79.79,0,0,0,.67-.29,1.46,1.46,0,0,0,.22-.89,1.49,1.49,0,0,0-.18-.73,2,2,0,0,0-.57-.59,2.47,2.47,0,0,0-.72-.32,3.2,3.2,0,0,0-.83-.1,2.32,2.32,0,0,0-1.83.69,3,3,0,0,0-.61,2.05,2.74,2.74,0,0,0,.36,1.41,3.15,3.15,0,0,0,1.09,1.05,4.56,4.56,0,0,0,1.34.55,7.22,7.22,0,0,0,1.58.17,5,5,0,0,0,2-.37,4.47,4.47,0,0,0,1.6-1.12,5,5,0,0,0,1-1.64,5.48,5.48,0,0,0,.34-2,5.22,5.22,0,0,0-.71-2.47A11.92,11.92,0,0,0,156.24,23c-.87-.86-1.75-1.7-2.65-2.54L150.91,18a12.5,12.5,0,0,1-2.14-3,6.64,6.64,0,0,1-.72-2.91,8.76,8.76,0,0,1,.74-3.72,6.77,6.77,0,0,1,2.2-2.7,9,9,0,0,1,3.07-1.47A14.89,14.89,0,0,1,158,3.69a12,12,0,0,1,3,.37,9.38,9.38,0,0,1,2.65,1.15,6.44,6.44,0,0,1,2.15,2.13A5.28,5.28,0,0,1,166.56,10.06Z"/></g></g></svg>