<svg xmlns="http://www.w3.org/2000/svg" viewBox="0 0 638.67 117.8"><defs><style>.cls-1{fill:#65b006;}</style></defs><title>ground</title><g id="Camada_2" data-name="Camada 2"><g id="Layer_1" data-name="Layer 1"><path class="cls-1" d="M9.13,31c1.46-4.41,6.17-9.12,6.17-9.12S9.71,21.92,0,28.1C8.53,17.21,26.13,7.62,47.22,7.18c44.38-.88,199-8.34,257-7s231.1-.89,275.48,1.75,58.95,19.68,58.95,19.68L627.2,19A50.34,50.34,0,0,1,636,31.73s-35.59,63.78-65.95,62.74c5.19,4.41,5.71,7.53,5.71,7.53s-11.94-5.19-19.73-5.45c5.19,3.63,4.42,7.27,4.42,7.27S506.26,81.5,507.88,84.1l-.33.06-8.67-1.41s-7.16-.41-12.09.89l3.64,3.12s-16.35,11.41-62.29,17.64c-42.05,6.49-49.83,4.93-54.5,2.6a90.64,90.64,0,0,1-10.12-6.23l1.55,8.82-5.7-7,1,7.52s-98.1,12.72-135.21,5.45l-.77-8-9.09,9.08s3.37-10.9,2.59-10.38-8.56,8.83-8.56,8.83-47,2.85-78.64-8.83l3.64-5.45-11.06,3L116.82,107s1.77-5.88,16.18-16.19a110.77,110.77,0,0,0-24.71,8L113,91.66s-8.54-.29-15.6,4.41c2.06-6.76,16.77-13.54,16.77-13.54L94.59,115.16s-9.23-5.53-17.53-3a74.38,74.38,0,0,1,7-5S64,107,57.68,111.84c3.5-6.64,4.06-7.75,4.06-7.75s-1.83,2.47-24.91-5.28S9,89.08,9,89.08c.89-4.71,11.92-63.63,11.92-63.63S17.36,24.86,9.13,31Z"/></g></g></svg>